<svg xmlns="http://www.w3.org/2000/svg" width="32" height="32" viewBox="0 0 32 32">
    <path fill="#FFF" fill-rule="evenodd" d="M29.333 24c0 .736-.597 1.333-1.333 1.333H8c-.736 0-1.333-.597-1.333-1.333S7.264 22.667 8 22.667h20c.736 0 1.333.597 1.333 1.333zm0-8c0 .736-.597 1.333-1.333 1.333H14.667c-.737 0-1.334-.597-1.334-1.333s.597-1.333 1.334-1.333H28c.736 0 1.333.597 1.333 1.333zm0-8c0 .736-.597 1.333-1.333 1.333H4c-.736 0-1.333-.597-1.333-1.333S3.264 6.667 4 6.667h24c.736 0 1.333.597 1.333 1.333z"/>
</svg>
