<svg xmlns="http://www.w3.org/2000/svg" xmlns:xlink="http://www.w3.org/1999/xlink" width="25" height="24" viewBox="0 0 25 24">
    <defs>
        <path id="prefix__a" d="M22 2.983V15c0 1.652-1.348 3-3 3H3c-1.652 0-3-1.348-3-3V3.012v-.03C.01 1.339 1.354 0 3 0h16c1.647 0 2.99 1.338 3 2.983zm-2.106-.43C19.728 2.228 19.388 2 19 2H3c-.388 0-.728.227-.893.554L11 8.779l8.894-6.225zM20 4.922l-8.426 5.898c-.345.241-.803.241-1.147 0L2 4.921V15c0 .548.452 1 1 1h16c.548 0 1-.452 1-1V4.92z"/>
    </defs>
    <g fill="none" fill-rule="evenodd" transform="translate(2 3)">
        <mask id="prefix__b" fill="#fff">
            <use xlink:href="#prefix__a"/>
        </mask>
        <use fill="#000" fill-rule="nonzero" xlink:href="#prefix__a"/>
        <g fill="#FFF" mask="url(#prefix__b)">
            <path d="M0 0H24V24H0z" transform="translate(-1 -3)"/>
        </g>
    </g>
</svg>
