<svg xmlns="http://www.w3.org/2000/svg" xmlns:xlink="http://www.w3.org/1999/xlink" width="25" height="25" viewBox="0 0 25 25">
    <defs>
        <path id="prefix__a" d="M18 19c0 .552-.448 1-1 1s-1-.448-1-1v-2c0-1.657-1.343-3-3-3H5c-1.657 0-3 1.343-3 3v2c0 .552-.448 1-1 1s-1-.448-1-1v-2c0-2.761 2.239-5 5-5h8c2.761 0 5 2.239 5 5v2zm-9-9c-2.761 0-5-2.239-5-5s2.239-5 5-5 5 2.239 5 5-2.239 5-5 5zm0-2c1.657 0 3-1.343 3-3s-1.343-3-3-3-3 1.343-3 3 1.343 3 3 3z"/>
    </defs>
    <g fill="none" fill-rule="evenodd" transform="translate(4 2)">
        <mask id="prefix__b" fill="#fff">
            <use xlink:href="#prefix__a"/>
        </mask>
        <use fill="#000" fill-rule="nonzero" xlink:href="#prefix__a"/>
        <g fill="#FFF" mask="url(#prefix__b)">
            <path d="M0 0H24V24H0z" transform="translate(-3 -2)"/>
        </g>
    </g>
</svg>
